<?xml version="1.0" encoding="UTF-8" standalone="no"?>
<!DOCTYPE svg PUBLIC "-//W3C//DTD SVG 1.1//EN" "http://www.w3.org/Graphics/SVG/1.1/DTD/svg11.dtd">
<!-- Created with Vectornator (http://vectornator.io/) -->
<svg height="100%" stroke-miterlimit="10" style="fill-rule:nonzero;clip-rule:evenodd;stroke-linecap:round;stroke-linejoin:round;" version="1.1" viewBox="0 0 1000 1000" width="100%" xml:space="preserve" xmlns="http://www.w3.org/2000/svg" xmlns:vectornator="http://vectornator.io" xmlns:xlink="http://www.w3.org/1999/xlink">
<defs/>
<g id="Layer-1"  vectornatorlayerName="Layer 1">
<path d="M13.6096 299.946L986.337 299.946L986.337 801.517L13.6096 801.517L13.6096 299.946Z" fill="#d8e7f2" fill-opacity="0" fill-rule="nonzero" opacity="1" stroke="#000000" stroke-linecap="butt" stroke-linejoin="round" stroke-width="3.36603"  vectornatorlayerName="Rectangle 1"/>
<path d="M25.2491 315.046L205.487 315.046L205.487 478.731L25.2491 478.731L25.2491 315.046Z" fill="#b09e6e" fill-opacity="0" fill-rule="nonzero" opacity="1" stroke="#000000" stroke-linecap="butt" stroke-linejoin="round" stroke-width="2.67374"  vectornatorlayerName="Rectangle 7"/>
<path d="M25.2491 621.844L205.487 621.844L205.487 785.53L25.2491 785.53L25.2491 621.844Z" fill="#b09e6e" fill-opacity="0" fill-rule="nonzero" opacity="1" stroke="#000000" stroke-linecap="butt" stroke-linejoin="round" stroke-width="2.67374"  vectornatorlayerName="Rectangle 3"/>
<path d="M217.134 315.046L397.372 315.046L397.372 478.731L217.134 478.731L217.134 315.046Z" fill="#b09e6e" fill-opacity="0" fill-rule="nonzero" opacity="1" stroke="#000000" stroke-linecap="butt" stroke-linejoin="round" stroke-width="2.67374"  vectornatorlayerName="Rectangle 8"/>
<path d="M217.134 621.844L397.372 621.844L397.372 785.53L217.134 785.53L217.134 621.844Z" fill="#b09e6e" fill-opacity="0" fill-rule="nonzero" opacity="1" stroke="#000000" stroke-linecap="butt" stroke-linejoin="round" stroke-width="2.67374"  vectornatorlayerName="Rectangle 4"/>
<path d="M409.854 315.046L590.092 315.046L590.092 478.731L409.854 478.731L409.854 315.046Z" fill="#b09e6e" fill-opacity="0" fill-rule="nonzero" opacity="1" stroke="#000000" stroke-linecap="butt" stroke-linejoin="round" stroke-width="2.67374"  vectornatorlayerName="Rectangle 9"/>
<path d="M409.854 621.844L590.092 621.844L590.092 785.53L409.854 785.53L409.854 621.844Z" fill="#b09e6e" fill-opacity="0" fill-rule="nonzero" opacity="1" stroke="#000000" stroke-linecap="butt" stroke-linejoin="round" stroke-width="2.67374"  vectornatorlayerName="Rectangle 5"/>
<path d="M601.506 315.046L781.744 315.046L781.744 478.731L601.506 478.731L601.506 315.046Z" fill="#b09e6e" fill-opacity="0" fill-rule="nonzero" opacity="1" stroke="#000000" stroke-linecap="butt" stroke-linejoin="round" stroke-width="2.67374"  vectornatorlayerName="Rectangle 10"/>
<path d="M601.506 621.844L781.744 621.844L781.744 785.53L601.506 785.53L601.506 621.844Z" fill="#b09e6e" fill-opacity="0" fill-rule="nonzero" opacity="1" stroke="#000000" stroke-linecap="butt" stroke-linejoin="round" stroke-width="2.67374"  vectornatorlayerName="Rectangle 6"/>
<path d="M794.513 315.046L974.751 315.046L974.751 478.731L794.513 478.731L794.513 315.046Z" fill="#b09e6e" fill-opacity="0" fill-rule="nonzero" opacity="1" stroke="#000000" stroke-linecap="butt" stroke-linejoin="round" stroke-width="2.67374"  vectornatorlayerName="Rectangle 11"/>
<path d="M794.513 621.844L974.751 621.844L974.751 785.53L794.513 785.53L794.513 621.844Z" fill="#b09e6e" fill-opacity="0" fill-rule="nonzero" opacity="1" stroke="#000000" stroke-linecap="butt" stroke-linejoin="round" stroke-width="2.67374"  vectornatorlayerName="Rectangle 2"/>
<path d="M25.2491 490.497L974.751 490.497L974.751 608.775L25.2491 608.775L25.2491 490.497Z" fill="#ffffff" fill-opacity="0" fill-rule="nonzero" opacity="1" stroke="#000000" stroke-linecap="butt" stroke-linejoin="round" stroke-width="2.46567"  vectornatorlayerName="Rectangle 12"/>
</g>
</svg>
